<mxfile host="drawio-plugin" modified="2022-08-06T13:17:53.692Z" agent="5.0 (Windows NT 6.2; Win64; x64) AppleWebKit/537.36 (KHTML, like Gecko) Chrome/98.0.4758.102 Safari/537.36" etag="8rFS7KnEg_s6EJ34iQAL" version="15.5.4" type="embed" pages="2"><diagram id="JYZZi3UwsB5fqD0c1z3U" name="StateHierarchy"><mxGraphModel dx="993" dy="748" grid="1" gridSize="10" guides="1" tooltips="1" connect="1" arrows="1" fold="1" page="1" pageScale="1" pageWidth="850" pageHeight="1100" math="0" shadow="0"><root><mxCell id="lku591kXWRtelNNooCMi-0"/><mxCell id="lku591kXWRtelNNooCMi-1" parent="lku591kXWRtelNNooCMi-0"/><mxCell id="LQ0GylnQrmCXzR6nTFVb-0" style="edgeStyle=orthogonalEdgeStyle;rounded=0;orthogonalLoop=1;jettySize=auto;html=1;exitX=0.5;exitY=0;exitDx=0;exitDy=0;entryX=0.5;entryY=1;entryDx=0;entryDy=0;" parent="lku591kXWRtelNNooCMi-1" source="LQ0GylnQrmCXzR6nTFVb-2" target="LQ0GylnQrmCXzR6nTFVb-10" edge="1"><mxGeometry relative="1" as="geometry"><Array as="points"><mxPoint x="320" y="640"/><mxPoint x="320" y="620"/><mxPoint x="380" y="620"/></Array></mxGeometry></mxCell><mxCell id="LQ0GylnQrmCXzR6nTFVb-1" style="edgeStyle=orthogonalEdgeStyle;rounded=0;orthogonalLoop=1;jettySize=auto;html=1;entryX=0.5;entryY=1;entryDx=0;entryDy=0;" parent="lku591kXWRtelNNooCMi-1" source="LQ0GylnQrmCXzR6nTFVb-2" target="LQ0GylnQrmCXzR6nTFVb-12" edge="1"><mxGeometry relative="1" as="geometry"><Array as="points"><mxPoint x="280" y="620"/><mxPoint x="220" y="620"/></Array></mxGeometry></mxCell><mxCell id="LQ0GylnQrmCXzR6nTFVb-2" value="PlayerState" style="rounded=0;whiteSpace=wrap;html=1;" parent="lku591kXWRtelNNooCMi-1" vertex="1"><mxGeometry x="240" y="640" width="120" height="40" as="geometry"/></mxCell><mxCell id="LQ0GylnQrmCXzR6nTFVb-3" value="Idle" style="rounded=0;whiteSpace=wrap;html=1;fillColor=#60a917;fontColor=#ffffff;strokeColor=#2D7600;" parent="lku591kXWRtelNNooCMi-1" vertex="1"><mxGeometry x="160" y="480" width="120" height="40" as="geometry"/></mxCell><mxCell id="LQ0GylnQrmCXzR6nTFVb-4" value="Jump" style="rounded=0;whiteSpace=wrap;html=1;fillColor=#6a00ff;fontColor=#ffffff;strokeColor=#3700CC;" parent="lku591kXWRtelNNooCMi-1" vertex="1"><mxGeometry x="480" y="480" width="120" height="40" as="geometry"/></mxCell><mxCell id="LQ0GylnQrmCXzR6nTFVb-5" value="Run" style="rounded=0;whiteSpace=wrap;html=1;fillColor=#1ba1e2;fontColor=#ffffff;strokeColor=#006EAF;" parent="lku591kXWRtelNNooCMi-1" vertex="1"><mxGeometry x="320" y="480" width="120" height="40" as="geometry"/></mxCell><mxCell id="LQ0GylnQrmCXzR6nTFVb-6" value="Fall" style="rounded=0;whiteSpace=wrap;html=1;fillColor=#d80073;fontColor=#ffffff;strokeColor=#A50040;" parent="lku591kXWRtelNNooCMi-1" vertex="1"><mxGeometry x="640" y="480" width="120" height="40" as="geometry"/></mxCell><mxCell id="LQ0GylnQrmCXzR6nTFVb-7" style="edgeStyle=orthogonalEdgeStyle;rounded=0;orthogonalLoop=1;jettySize=auto;html=1;entryX=0.5;entryY=1;entryDx=0;entryDy=0;" parent="lku591kXWRtelNNooCMi-1" source="LQ0GylnQrmCXzR6nTFVb-10" target="LQ0GylnQrmCXzR6nTFVb-5" edge="1"><mxGeometry relative="1" as="geometry"/></mxCell><mxCell id="LQ0GylnQrmCXzR6nTFVb-8" style="edgeStyle=orthogonalEdgeStyle;rounded=0;orthogonalLoop=1;jettySize=auto;html=1;exitX=1;exitY=0.25;exitDx=0;exitDy=0;entryX=0.5;entryY=1;entryDx=0;entryDy=0;" parent="lku591kXWRtelNNooCMi-1" source="LQ0GylnQrmCXzR6nTFVb-10" target="LQ0GylnQrmCXzR6nTFVb-4" edge="1"><mxGeometry relative="1" as="geometry"/></mxCell><mxCell id="LQ0GylnQrmCXzR6nTFVb-9" style="edgeStyle=orthogonalEdgeStyle;rounded=0;orthogonalLoop=1;jettySize=auto;html=1;exitX=1;exitY=0.75;exitDx=0;exitDy=0;entryX=0.5;entryY=1;entryDx=0;entryDy=0;" parent="lku591kXWRtelNNooCMi-1" source="LQ0GylnQrmCXzR6nTFVb-10" target="LQ0GylnQrmCXzR6nTFVb-6" edge="1"><mxGeometry relative="1" as="geometry"/></mxCell><mxCell id="LQ0GylnQrmCXzR6nTFVb-10" value="MovebleState" style="rounded=0;whiteSpace=wrap;html=1;" parent="lku591kXWRtelNNooCMi-1" vertex="1"><mxGeometry x="320" y="560" width="120" height="40" as="geometry"/></mxCell><mxCell id="LQ0GylnQrmCXzR6nTFVb-11" style="edgeStyle=orthogonalEdgeStyle;rounded=0;orthogonalLoop=1;jettySize=auto;html=1;exitX=0.5;exitY=0;exitDx=0;exitDy=0;entryX=0.5;entryY=1;entryDx=0;entryDy=0;" parent="lku591kXWRtelNNooCMi-1" source="LQ0GylnQrmCXzR6nTFVb-12" target="LQ0GylnQrmCXzR6nTFVb-3" edge="1"><mxGeometry relative="1" as="geometry"/></mxCell><mxCell id="LQ0GylnQrmCXzR6nTFVb-12" value="UnmovebleState" style="rounded=0;whiteSpace=wrap;html=1;" parent="lku591kXWRtelNNooCMi-1" vertex="1"><mxGeometry x="160" y="560" width="120" height="40" as="geometry"/></mxCell><mxCell id="LQ0GylnQrmCXzR6nTFVb-14" style="edgeStyle=orthogonalEdgeStyle;rounded=0;orthogonalLoop=1;jettySize=auto;html=1;entryX=0.5;entryY=1;entryDx=0;entryDy=0;" parent="lku591kXWRtelNNooCMi-1" source="LQ0GylnQrmCXzR6nTFVb-13" target="LQ0GylnQrmCXzR6nTFVb-2" edge="1"><mxGeometry relative="1" as="geometry"/></mxCell><mxCell id="LQ0GylnQrmCXzR6nTFVb-13" value="State" style="rounded=0;whiteSpace=wrap;html=1;" parent="lku591kXWRtelNNooCMi-1" vertex="1"><mxGeometry x="240" y="720" width="120" height="40" as="geometry"/></mxCell></root></mxGraphModel></diagram><diagram id="23iRSUPoRavnBvh4doch" name="PlayerStateRelations"><mxGraphModel dx="993" dy="748" grid="1" gridSize="10" guides="1" tooltips="1" connect="1" arrows="1" fold="1" page="1" pageScale="1" pageWidth="827" pageHeight="1169" math="0" shadow="0"><root><mxCell id="0"/><mxCell id="1" parent="0"/><mxCell id="67" style="edgeStyle=orthogonalEdgeStyle;rounded=0;orthogonalLoop=1;jettySize=auto;html=1;exitX=1;exitY=0.75;exitDx=0;exitDy=0;entryX=1;entryY=0.25;entryDx=0;entryDy=0;fillColor=#6a00ff;strokeColor=#3700CC;" parent="1" source="56" target="57" edge="1"><mxGeometry relative="1" as="geometry"><Array as="points"><mxPoint x="469.86" y="660"/><mxPoint x="469.86" y="690"/></Array></mxGeometry></mxCell><mxCell id="56" value="Jump" style="rounded=1;whiteSpace=wrap;html=1;fillColor=#6a00ff;fontColor=#ffffff;strokeColor=#3700CC;" parent="1" vertex="1"><mxGeometry x="339.86" y="630" width="120" height="40" as="geometry"/></mxCell><mxCell id="68" style="edgeStyle=orthogonalEdgeStyle;rounded=0;orthogonalLoop=1;jettySize=auto;html=1;entryX=0;entryY=0.5;entryDx=0;entryDy=0;fillColor=#d80073;strokeColor=#A50040;" parent="1" source="57" target="59" edge="1"><mxGeometry relative="1" as="geometry"><Array as="points"><mxPoint x="319.86" y="700"/><mxPoint x="319.86" y="600"/></Array></mxGeometry></mxCell><mxCell id="69" style="edgeStyle=orthogonalEdgeStyle;rounded=0;orthogonalLoop=1;jettySize=auto;html=1;entryX=0;entryY=0.5;entryDx=0;entryDy=0;fillColor=#d80073;strokeColor=#A50040;" parent="1" source="57" target="58" edge="1"><mxGeometry relative="1" as="geometry"><Array as="points"><mxPoint x="309.86" y="710"/><mxPoint x="309.86" y="550"/></Array></mxGeometry></mxCell><mxCell id="57" value="Fall" style="rounded=1;whiteSpace=wrap;html=1;fillColor=#d80073;fontColor=#ffffff;strokeColor=#A50040;" parent="1" vertex="1"><mxGeometry x="339.86" y="680" width="120" height="40" as="geometry"/></mxCell><mxCell id="61" style="edgeStyle=orthogonalEdgeStyle;rounded=0;orthogonalLoop=1;jettySize=auto;html=1;entryX=1;entryY=0.25;entryDx=0;entryDy=0;fillColor=#60a917;strokeColor=#2D7600;" parent="1" source="58" target="59" edge="1"><mxGeometry relative="1" as="geometry"><mxPoint x="469.86" y="600" as="targetPoint"/><Array as="points"><mxPoint x="479.86" y="550"/><mxPoint x="479.86" y="590"/></Array></mxGeometry></mxCell><mxCell id="62" style="edgeStyle=orthogonalEdgeStyle;rounded=0;orthogonalLoop=1;jettySize=auto;html=1;fillColor=#60a917;strokeColor=#2D7600;entryX=1;entryY=0.5;entryDx=0;entryDy=0;" parent="1" source="58" target="56" edge="1"><mxGeometry relative="1" as="geometry"><mxPoint x="459.86" y="640" as="targetPoint"/><Array as="points"><mxPoint x="489.86" y="540"/><mxPoint x="489.86" y="650"/></Array></mxGeometry></mxCell><mxCell id="58" value="Idle" style="rounded=1;whiteSpace=wrap;html=1;fillColor=#60a917;fontColor=#ffffff;strokeColor=#2D7600;" parent="1" vertex="1"><mxGeometry x="339.86" y="530" width="120" height="40" as="geometry"/></mxCell><mxCell id="63" style="edgeStyle=orthogonalEdgeStyle;rounded=0;orthogonalLoop=1;jettySize=auto;html=1;entryX=0;entryY=0.75;entryDx=0;entryDy=0;exitX=0;exitY=0.25;exitDx=0;exitDy=0;fillColor=#1ba1e2;strokeColor=#006EAF;" parent="1" source="59" target="58" edge="1"><mxGeometry relative="1" as="geometry"><Array as="points"><mxPoint x="329.86" y="590"/><mxPoint x="329.86" y="560"/></Array></mxGeometry></mxCell><mxCell id="65" style="edgeStyle=orthogonalEdgeStyle;rounded=0;orthogonalLoop=1;jettySize=auto;html=1;entryX=1;entryY=0.25;entryDx=0;entryDy=0;fillColor=#1ba1e2;strokeColor=#006EAF;" parent="1" source="59" target="56" edge="1"><mxGeometry relative="1" as="geometry"><Array as="points"><mxPoint x="469.86" y="610"/><mxPoint x="469.86" y="640"/></Array></mxGeometry></mxCell><mxCell id="66" style="edgeStyle=orthogonalEdgeStyle;rounded=0;orthogonalLoop=1;jettySize=auto;html=1;entryX=0;entryY=0.25;entryDx=0;entryDy=0;fillColor=#1ba1e2;strokeColor=#006EAF;exitX=0;exitY=0.75;exitDx=0;exitDy=0;" parent="1" source="59" target="57" edge="1"><mxGeometry relative="1" as="geometry"><Array as="points"><mxPoint x="329.86" y="610"/><mxPoint x="329.86" y="690"/></Array></mxGeometry></mxCell><mxCell id="59" value="Run" style="rounded=1;whiteSpace=wrap;html=1;fillColor=#1ba1e2;fontColor=#ffffff;strokeColor=#006EAF;" parent="1" vertex="1"><mxGeometry x="339.86" y="580" width="120" height="40" as="geometry"/></mxCell></root></mxGraphModel></diagram></mxfile>